<svg aria-hidden="true" style="position: absolute; width: 0; height: 0; overflow: hidden;" version="1.1" xmlns="http://www.w3.org/2000/svg" xmlns:xlink="http://www.w3.org/1999/xlink">
  <defs>
    <symbol id="icon-check" viewBox="0 0 40 32">
      <path stroke-linejoin="miter" stroke-linecap="butt" stroke-miterlimit="4" stroke-width="8" d="M2.844 11.854l12.22 12.351 21.995-21.333"/>
    </symbol>
    <symbol id="icon-flag" viewBox="0 0 50 32">
      <path fill="#ffd500" style="fill: var(--color1, #ffd500)" d="M48 32h-48v-16h48v16z"/>
      <path fill="#005bbb" style="fill: var(--color2, #005bbb)" d="M48 16h-48v-16h48v16z"/>
    </symbol>
    <symbol id="icon-close" viewBox="0 0 32 32">
      <path d="M24.707 8.707c0.39-0.391 0.39-1.024 0-1.414s-1.024-0.391-1.414 0l-7.293 7.293-7.293-7.293c-0.391-0.391-1.024-0.391-1.414 0s-0.391 1.024 0 1.414l7.293 7.293-7.293 7.293c-0.391 0.39-0.391 1.024 0 1.414s1.024 0.39 1.414 0l7.293-7.293 7.293 7.293c0.39 0.39 1.024 0.39 1.414 0s0.39-1.024 0-1.414l-7.293-7.293 7.293-7.293z"/>
    </symbol>
  </defs>
</svg>